<svg xmlns="http://www.w3.org/2000/svg" xmlns:xlink="http://www.w3.org/1999/xlink" aria-hidden="true" role="img" class="iconify iconify--logos" width="31.88" height="32" preserveAspectRatio="xMidYMid meet" viewBox="0 0 256 257"><path fill="#FF3E00" d="M210.483 135.816c-.006-1.089-.127-2.171-.363-3.226c-.663-2.993-2.263-5.735-4.619-7.963l-51.346-49.981l-.001-.001c-2.24-2.117-4.95-3.704-7.933-4.654c-1.046-.264-2.12-.391-3.198-.378l-62.332-.004l-.004-.004c-1.078-.014-2.152.111-3.198.378c-2.983.95-5.693 2.537-7.933 4.654L29.362 124.626c-2.356 2.228-3.956 4.97-4.619 7.963c-.236 1.055-.357 2.137-.363 3.226c-.007 1.089.111 2.171.35 3.226c.662 2.993 2.262 5.735 4.619 7.963l51.347 49.981c2.24 2.117 4.95 3.704 7.933 4.654c1.046.264 2.12.391 3.198.378l62.332.004c1.078.014 2.152-.111 3.198-.378c2.983-.95 5.693-2.537 7.933-4.654l51.346-49.981c2.356-2.228 3.956-4.97 4.619-7.963c.239-1.055.357-2.137.35-3.226Z"></path><path fill="#FF3E00" d="M210.483 120.993c-.003-.543-.063-1.083-.181-1.61c-.329-1.496-1.131-2.872-2.31-3.988l-51.346-49.981c-1.12-1.059-2.475-1.852-3.966-2.327c-.53-.134-1.07-.2-1.61-.197l-62.332-.004c-.54-.007-1.08.058-1.61.197c-1.491.475-2.846 1.268-3.966 2.327L48.275 115.395c-1.179 1.116-1.981 2.492-2.31 3.988c-.118.527-.178 1.067-.181 1.61c-.004.543.055 1.083.175 1.61c.329 1.496 1.131 2.872 2.31 3.988l51.347 49.981c1.12 1.059 2.475 1.852 3.966 2.327c.53.134 1.07.2 1.61.197l62.332.004c.54.007 1.08-.058 1.61-.197c1.491-.475 2.846-1.268 3.966-2.327l51.346-49.981c1.179-1.116 1.981-2.492 2.31-3.988c.12-.527.179-1.067.175-1.61Z"></path></svg>
